# xmcd
#
# Track frame offsets: 
#        150
#        40284
#        65977
#        97334
#        122955
#        154155
#
# Disc length: 2829 seconds
#
# Revision: 1
# Processed by: cddbd v1.5.2PL0 Copyright (c) Steve Scherf et al.
# Submitted via: ExactAudioCopy v0.99pb4
#
DISCID=5b0b0b06
DTITLE=Jandek - Austin Sunday [CD2]
DYEAR=2006
DGENRE=Corwoodcore
TTITLE0=Wine You Devil
TTITLE1=You Hold Me Up
TTITLE2=You Just About Killed Me
TTITLE3=Little While
TTITLE4=Lonely Dog
TTITLE5=Let Me Try Again
EXTD=
EXTT0=
EXTT1=
EXTT2=
EXTT3=
EXTT4=
EXTT5=
PLAYORDER=
